HIERARCHY
ROOT Hips
{
	OFFSET 0.000000 83.214638 0.000000
	CHANNELS 6 Xposition Yposition Zposition Xrotation Yrotation Zrotation
	JOINT Pelvis
	{
		OFFSET 0.000000 0.000000 0.000000
		CHANNELS 3 Xrotation Yrotation Zrotation
		JOINT LeftUpLeg
		{
			OFFSET 8.479700 -4.795502 -0.379100
			CHANNELS 3 Xrotation Yrotation Zrotation
			JOINT LeftLeg
			{
				OFFSET 0.024144 -32.555107 0.112900
				CHANNELS 3 Xrotation Yrotation Zrotation
				JOINT LeftFoot
				{
					OFFSET -0.024144 -32.638630 -3.012600
					CHANNELS 3 Xrotation Yrotation Zrotation
					JOINT LeftToeBase
					{
						OFFSET 0.970200 -13.225400 11.864200
						CHANNELS 3 Xrotation Yrotation Zrotation
						End Site
						{
							OFFSET 0.000000 12.319262 0.000000
						}
					}
					JOINT LFootTongue
					{
						OFFSET 1.142400 -1.059800 6.665200
						CHANNELS 3 Xrotation Yrotation Zrotation
						End Site
						{
							OFFSET 0.000000 12.319262 0.000000
						}
					}
				}
				JOINT LeftPantLeg
				{
					OFFSET 0.918482 -16.533964 -2.284700
					CHANNELS 3 Xrotation Yrotation Zrotation
					End Site
					{
						OFFSET 0.350399 24.744368 0.000000
					}
				}
			}
		}
		JOINT RightUpLeg
		{
			OFFSET -8.479700 -4.795502 -0.379100
			CHANNELS 3 Xrotation Yrotation Zrotation
			JOINT RightLeg
			{
				OFFSET -0.023144 -32.555092 0.112900
				CHANNELS 3 Xrotation Yrotation Zrotation
				JOINT RightFoot
				{
					OFFSET 0.023144 -32.638641 -3.012700
					CHANNELS 3 Xrotation Yrotation Zrotation
					JOINT RightToeBase
					{
						OFFSET -0.970200 -13.225400 11.864200
						CHANNELS 3 Xrotation Yrotation Zrotation
						End Site
						{
							OFFSET 0.000000 12.319244 0.000000
						}
					}
					JOINT RFootTongue
					{
						OFFSET -1.142200 -1.059800 6.665200
						CHANNELS 3 Xrotation Yrotation Zrotation
						End Site
						{
							OFFSET 0.000000 12.319243 0.000000
						}
					}
				}
				JOINT RightPantLeg
				{
					OFFSET -0.919482 -16.533978 -2.284800
					CHANNELS 3 Xrotation Yrotation Zrotation
					End Site
					{
						OFFSET -0.350400 24.744419 0.000000
					}
				}
			}
		}
	}
	JOINT Spine
	{
		OFFSET 0.000000 7.722000 1.166200
		CHANNELS 3 Xrotation Yrotation Zrotation
		JOINT Spine1
		{
			OFFSET 0.000000 12.024101 0.248800
			CHANNELS 3 Xrotation Yrotation Zrotation
			JOINT Spine2
			{
				OFFSET 0.000000 11.502998 -0.491200
				CHANNELS 3 Xrotation Yrotation Zrotation
				JOINT Neck
				{
					OFFSET 0.000000 18.430702 -3.123100
					CHANNELS 3 Xrotation Yrotation Zrotation
					JOINT Head
					{
						OFFSET 0.000000 9.051102 1.034000
						CHANNELS 3 Xrotation Yrotation Zrotation
						JOINT HairB
						{
							OFFSET 0.208400 24.786102 24.822300
							CHANNELS 3 Xrotation Yrotation Zrotation
							End Site
							{
								OFFSET 0.000000 32.263779 0.000000
							}
						}
						JOINT HairA
						{
							OFFSET -7.081100 24.428299 23.196600
							CHANNELS 3 Xrotation Yrotation Zrotation
							End Site
							{
								OFFSET 0.000000 32.263779 0.000000
							}
						}
						JOINT Hat
						{
							OFFSET 16.728800 15.048294 -15.439601
							CHANNELS 3 Xrotation Yrotation Zrotation
							End Site
							{
								OFFSET 0.000000 32.263779 0.000000
							}
						}
					}
				}
				JOINT LeftShoulder
				{
					OFFSET 6.197800 13.665199 -4.064700
					CHANNELS 3 Xrotation Yrotation Zrotation
					JOINT LeftArm
					{
						OFFSET 7.778100 -0.187103 -1.709300
						CHANNELS 3 Xrotation Yrotation Zrotation
						JOINT LeftForeArm
						{
							OFFSET 22.049376 0.000000 0.000000
							CHANNELS 3 Xrotation Yrotation Zrotation
							JOINT LeftHand
							{
								OFFSET 23.009392 0.000000 0.000000
								CHANNELS 3 Xrotation Yrotation Zrotation
								JOINT LeftHandThumb1
								{
									OFFSET 3.507191 -2.063065 3.133727
									CHANNELS 3 Xrotation Yrotation Zrotation
									JOINT LeftHandThumb2
									{
										OFFSET 3.101337 -1.790558 1.790558
										CHANNELS 3 Xrotation Yrotation Zrotation
										JOINT LeftHandThumb3
										{
											OFFSET 3.058640 -1.765907 1.765906
											CHANNELS 3 Xrotation Yrotation Zrotation
											End Site
											{
												OFFSET -0.415260 3.926476 -0.049563
											}
										}
									}
								}
								JOINT LeftHandIndex1
								{
									OFFSET 11.334419 -0.901459 3.706815
									CHANNELS 3 Xrotation Yrotation Zrotation
									JOINT LeftHandIndex2
									{
										OFFSET 3.283112 0.000000 0.000000
										CHANNELS 3 Xrotation Yrotation Zrotation
										JOINT LeftHandIndex3
										{
											OFFSET 3.323853 0.000000 0.000000
											CHANNELS 3 Xrotation Yrotation Zrotation
											End Site
											{
												OFFSET -1.135597 3.097809 0.402452
											}
										}
									}
								}
								JOINT LeftHandMiddle1
								{
									OFFSET 11.335861 0.000000 0.000000
									CHANNELS 3 Xrotation Yrotation Zrotation
									JOINT LeftHandMiddle2
									{
										OFFSET 3.410492 0.000000 0.000000
										CHANNELS 3 Xrotation Yrotation Zrotation
										JOINT LeftHandMiddle3
										{
											OFFSET 3.312172 0.000000 0.000000
											CHANNELS 3 Xrotation Yrotation Zrotation
											End Site
											{
												OFFSET -1.150200 3.080154 0.400270
											}
										}
									}
								}
								JOINT LeftHandRing1
								{
									OFFSET 11.514786 -0.013176 -3.003090
									CHANNELS 3 Xrotation Yrotation Zrotation
									JOINT LeftHandRing2
									{
										OFFSET 3.053307 0.000000 0.000000
										CHANNELS 3 Xrotation Yrotation Zrotation
										JOINT LeftHandRing3
										{
											OFFSET 3.295807 0.000000 0.000000
											CHANNELS 3 Xrotation Yrotation Zrotation
											End Site
											{
												OFFSET -1.281006 3.013344 0.375733
											}
										}
									}
								}
								JOINT LeftHandPinky1
								{
									OFFSET 10.518692 -0.960396 -5.730441
									CHANNELS 3 Xrotation Yrotation Zrotation
									JOINT LeftHandPinky2
									{
										OFFSET 2.861649 0.000000 0.000000
										CHANNELS 3 Xrotation Yrotation Zrotation
										JOINT LeftHandPinky3
										{
											OFFSET 2.863380 0.000000 0.000000
											CHANNELS 3 Xrotation Yrotation Zrotation
											End Site
											{
												OFFSET -0.843597 2.711159 0.369971
											}
										}
									}
								}
							}
							JOINT LSleeve
							{
								OFFSET 6.676277 -0.344902 -1.011730
								CHANNELS 3 Xrotation Yrotation Zrotation
								End Site
								{
									OFFSET 0.000000 14.885353 0.000000
								}
							}
						}
					}
				}
				JOINT RightShoulder
				{
					OFFSET -6.197800 13.665199 -4.064700
					CHANNELS 3 Xrotation Yrotation Zrotation
					JOINT RightArm
					{
						OFFSET -7.778100 -0.187103 -1.709300
						CHANNELS 3 Xrotation Yrotation Zrotation
						JOINT RightForeArm
						{
							OFFSET -22.049376 0.000000 0.000000
							CHANNELS 3 Xrotation Yrotation Zrotation
							JOINT RightHand
							{
								OFFSET -23.009392 0.000000 0.000000
								CHANNELS 3 Xrotation Yrotation Zrotation
								JOINT RightHandThumb1
								{
									OFFSET -3.507191 -2.063065 3.133727
									CHANNELS 3 Xrotation Yrotation Zrotation
									JOINT RightHandThumb2
									{
										OFFSET -3.101337 -1.790558 1.790558
										CHANNELS 3 Xrotation Yrotation Zrotation
										JOINT RightHandThumb3
										{
											OFFSET -3.058640 -1.765907 1.765906
											CHANNELS 3 Xrotation Yrotation Zrotation
											End Site
											{
												OFFSET 0.415260 3.926476 -0.049563
											}
										}
									}
								}
								JOINT RightHandIndex1
								{
									OFFSET -11.334419 -0.901459 3.706815
									CHANNELS 3 Xrotation Yrotation Zrotation
									JOINT RightHandIndex2
									{
										OFFSET -3.283112 0.000000 0.000000
										CHANNELS 3 Xrotation Yrotation Zrotation
										JOINT RightHandIndex3
										{
											OFFSET -3.323853 0.000000 0.000000
											CHANNELS 3 Xrotation Yrotation Zrotation
											End Site
											{
												OFFSET 1.135597 3.097809 0.402452
											}
										}
									}
								}
								JOINT RightHandMiddle1
								{
									OFFSET -11.335861 0.000000 0.000000
									CHANNELS 3 Xrotation Yrotation Zrotation
									JOINT RightHandMiddle2
									{
										OFFSET -3.410492 0.000000 0.000000
										CHANNELS 3 Xrotation Yrotation Zrotation
										JOINT RightHandMiddle3
										{
											OFFSET -3.312172 0.000000 0.000000
											CHANNELS 3 Xrotation Yrotation Zrotation
											End Site
											{
												OFFSET 1.150200 3.080154 0.400270
											}
										}
									}
								}
								JOINT RightHandRing1
								{
									OFFSET -11.514786 -0.013176 -3.003090
									CHANNELS 3 Xrotation Yrotation Zrotation
									JOINT RightHandRing2
									{
										OFFSET -3.053307 0.000000 0.000000
										CHANNELS 3 Xrotation Yrotation Zrotation
										JOINT RightHandRing3
										{
											OFFSET -3.295807 0.000000 0.000000
											CHANNELS 3 Xrotation Yrotation Zrotation
											End Site
											{
												OFFSET 1.281006 3.013344 0.375733
											}
										}
									}
								}
								JOINT RightHandPinky1
								{
									OFFSET -10.518692 -0.960396 -5.730441
									CHANNELS 3 Xrotation Yrotation Zrotation
									JOINT RightHandPinky2
									{
										OFFSET -2.861649 0.000000 0.000000
										CHANNELS 3 Xrotation Yrotation Zrotation
										JOINT RightHandPinky3
										{
											OFFSET -2.863380 0.000000 0.000000
											CHANNELS 3 Xrotation Yrotation Zrotation
											End Site
											{
												OFFSET 0.843597 2.711159 0.369971
											}
										}
									}
								}
							}
							JOINT RSleeve
							{
								OFFSET -6.676277 -0.344902 -1.011730
								CHANNELS 3 Xrotation Yrotation Zrotation
								End Site
								{
									OFFSET 0.000000 14.885353 0.000000
								}
							}
						}
					}
				}
				JOINT Backpack
				{
					OFFSET 0.000000 -2.471497 36.677502
					CHANNELS 3 Xrotation Yrotation Zrotation
					End Site
					{
						OFFSET 0.000000 20.427315 0.000000
					}
				}
				JOINT Hood
				{
					OFFSET 0.000000 18.754097 -10.431000
					CHANNELS 3 Xrotation Yrotation Zrotation
					JOINT Hood1
					{
						OFFSET 0.000000 -5.011002 -7.685901
						CHANNELS 3 Xrotation Yrotation Zrotation
						End Site
						{
							OFFSET 0.000000 9.175140 0.000000
						}
					}
				}
				JOINT LHoodieString
				{
					OFFSET 5.250500 16.397697 3.089900
					CHANNELS 3 Xrotation Yrotation Zrotation
					JOINT LHoodieString1
					{
						OFFSET 0.257700 -6.364304 3.694600
						CHANNELS 3 Xrotation Yrotation Zrotation
						JOINT LHoodieString2
						{
							OFFSET 0.000000 -9.643799 2.679100
							CHANNELS 3 Xrotation Yrotation Zrotation
							End Site
							{
								OFFSET 0.000000 10.009018 0.000000
							}
						}
					}
				}
				JOINT RHoodieString
				{
					OFFSET -5.250500 16.397697 3.089900
					CHANNELS 3 Xrotation Yrotation Zrotation
					JOINT RHoodieString1
					{
						OFFSET -0.257700 -6.364304 3.694600
						CHANNELS 3 Xrotation Yrotation Zrotation
						JOINT RHoodieString2
						{
							OFFSET 0.000000 -9.643799 2.679100
							CHANNELS 3 Xrotation Yrotation Zrotation
							End Site
							{
								OFFSET 0.000000 10.009018 0.000000
							}
						}
					}
				}
			}
			JOINT LBackpack_Strap
			{
				OFFSET 15.223200 -7.719803 -6.610900
				CHANNELS 3 Xrotation Yrotation Zrotation
				End Site
				{
					OFFSET 0.000000 16.040596 0.000000
				}
			}
			JOINT RBackpack_Strap
			{
				OFFSET -15.223000 -7.719803 -6.610900
				CHANNELS 3 Xrotation Yrotation Zrotation
				End Site
				{
					OFFSET 0.000000 16.040596 0.000000
				}
			}
		}
	}
	JOINT BoyFacialAnim_Joint
	{
		OFFSET 1.000000 -82.208099 -1.550900
		CHANNELS 3 Xrotation Yrotation Zrotation
		End Site
		{
			OFFSET 0.000000 30.012791 0.000000
		}
	}
}
MOTION
Frames: 4
Frame Time: 0.033333
4.059630 77.020630 -7.050718 -8.115633 -49.656472 -9.804990 -0.000000 0.000002 -0.000000 -31.377408 11.912282 24.173880 23.820614 9.947738 3.259013 13.594099 3.589107 -13.652817 -0.000000 0.000000 0.000000 -0.000000 0.000000 0.000000 0.000001 0.000002 -0.000001 -10.039919 -13.051864 -10.514186 41.407834 -10.074888 4.912735 -21.157291 -10.633925 6.757639 -0.000000 -0.000000 -0.000000 -0.000000 -0.000000 -0.000000 0.000001 -0.000001 0.000000 21.306551 -0.036750 3.940303 10.879488 -0.191985 1.178189 10.877096 -0.233743 1.195059 -3.077383 1.066253 7.590767 -3.223616 24.080484 -4.123485 -0.000001 0.000002 -0.000000 -0.000001 0.000002 -0.000000 -0.000001 0.000002 -0.000000 -2.949536 -1.458925 9.624262 -22.225666 10.087883 -85.274830 0.039178 -92.978730 0.039062 -7.306519 -18.440850 -20.641873 -16.980472 0.396589 -10.538580 1.827611 23.285667 9.495466 0.000000 0.000001 -0.000001 2.050581 6.748518 -48.592435 0.700756 2.780290 -28.287338 -0.000000 -0.000000 -0.000000 0.311357 5.262572 -49.352225 1.370294 3.766502 -39.972275 0.000001 -0.000001 -0.000005 2.690107 7.273363 -62.691602 1.552262 3.973041 -42.668291 0.000000 -0.000000 -0.000002 4.627013 8.055764 -77.222795 1.250432 3.619045 -38.111455 0.000000 0.000000 -0.000000 0.000000 -0.000000 -0.000000 -0.103050 11.792572 -5.002577 -38.200517 30.222764 70.849361 0.000044 126.697864 -0.000055 -60.204231 5.848319 3.180954 -17.410929 3.416707 14.643161 14.798158 -17.191304 -3.978974 0.000003 0.000001 0.000002 2.163833 -6.848412 33.739605 0.470633 -2.041965 25.955602 -0.000001 -0.000001 0.000003 4.035356 -8.380318 42.893967 1.588314 -3.504719 48.748645 0.000001 0.000001 -0.000004 1.983857 -6.057221 53.465498 1.460424 -3.388490 46.621618 -0.000003 0.000002 0.000002 8.790903 -13.716023 42.049940 2.615224 -4.186544 63.969933 -0.000000 -0.000000 -0.000002 -0.000001 -0.000002 0.000001 -0.000000 0.000001 -0.000002 -0.000000 0.000001 -0.000002 -0.000000 0.000001 -0.000002 -0.000000 0.000001 -0.000002 -0.000000 0.000001 -0.000002 -0.000002 -0.000002 0.000000 -0.000000 0.000001 -0.000002 -0.000000 0.000001 -0.000002 -0.000002 -0.000002 0.000000 0.000003 -0.000000 -0.000000 0.000003 -0.000000 -0.000000 -0.000000 0.000002 -0.000000 
3.842436 77.037415 -7.041348 -8.357384 -49.517857 -9.793384 -0.000000 -0.000001 -0.000000 -30.980218 12.087885 24.092854 23.605346 9.952903 3.219472 13.613211 3.457661 -13.672162 0.000000 0.000001 -0.000000 0.000000 0.000001 -0.000000 -0.000001 -0.000001 0.000001 -9.733460 -13.097337 -10.524467 41.468165 -10.124735 4.835229 -21.394384 -10.767242 6.578553 0.000000 0.000000 -0.000000 0.000000 0.000000 -0.000000 0.000001 0.000001 -0.000000 21.068280 -0.193487 4.112790 10.778405 -0.276972 1.240241 10.775464 -0.318140 1.257912 -3.140041 1.016928 7.623581 -3.131229 23.907192 -4.219428 0.000001 -0.000000 0.000001 0.000001 -0.000000 0.000001 0.000001 -0.000000 0.000001 -2.893662 -1.681138 9.553935 -22.261535 10.412775 -85.139831 0.000300 -92.880006 0.000238 -7.233372 -18.267238 -20.543565 -16.840359 0.383268 -10.571652 1.828287 23.278598 9.492317 -0.000000 0.000000 0.000002 2.049283 6.747388 -48.575633 0.700728 2.780279 -28.287372 -0.000005 0.000000 -0.000002 0.301257 5.252893 -49.333288 1.370877 3.767181 -39.981045 0.000000 -0.000001 -0.000005 2.681344 7.268579 -62.667102 1.552380 3.973143 -42.669729 -0.000001 -0.000001 -0.000004 4.624482 8.055177 -77.197127 1.247998 3.615957 -38.073121 0.000000 0.000001 -0.000000 -0.000001 0.000001 0.000004 -0.120698 11.617936 -4.984674 -38.288015 30.201850 70.845666 0.000018 126.427717 -0.000033 -59.947047 5.936324 3.294031 -17.429434 3.410305 14.639319 14.808683 -17.295545 -3.979798 -0.000000 0.000001 0.000003 2.240157 -6.915713 34.339999 0.553191 -2.203350 28.183835 -0.000003 -0.000001 0.000005 4.026172 -8.372947 42.870065 1.686288 -3.588125 50.332589 0.000005 -0.000006 0.000004 1.997787 -6.067531 53.435015 1.458322 -3.386519 46.586179 -0.000001 0.000000 -0.000003 8.782314 -13.673580 42.163854 2.614529 -4.186215 63.960569 -0.000002 0.000000 -0.000001 0.000000 -0.000002 0.000000 0.000001 0.000002 -0.000000 0.000001 0.000002 -0.000000 0.000001 0.000002 -0.000000 0.000001 0.000002 -0.000000 0.000001 0.000002 -0.000002 -0.000004 0.000002 -0.000001 0.000001 0.000002 -0.000000 0.000001 0.000002 -0.000002 -0.000004 0.000002 -0.000001 0.000002 0.000001 -0.000000 0.000002 0.000001 -0.000000 -0.000000 -0.000001 -0.000000 
3.631804 77.051857 -7.009819 -8.602679 -49.397895 -9.788278 -0.000000 0.000001 -0.000000 -30.609117 12.273333 24.033146 23.467589 9.958949 3.152977 13.574536 3.313075 -13.670090 -0.000000 0.000001 -0.000000 -0.000000 0.000001 -0.000000 -0.000000 -0.000001 0.000000 -9.453661 -13.128946 -10.522110 41.565307 -10.194939 4.719107 -21.640806 -10.868517 6.343766 -0.000000 0.000000 -0.000000 -0.000000 0.000000 -0.000000 0.000004 0.000000 -0.000001 20.834746 -0.327578 4.285043 10.677775 -0.350518 1.304408 10.674311 -0.391578 1.322899 -3.188300 0.948128 7.673974 -3.096944 23.651217 -4.207072 -0.000000 0.000001 -0.000001 -0.000000 0.000001 -0.000001 -0.000000 0.000001 -0.000001 -2.833299 -2.018234 9.516507 -22.240757 10.750775 -84.990598 -0.000333 -92.788188 -0.000298 -7.273996 -18.136625 -20.459425 -16.664207 0.336812 -10.613699 1.830050 23.259987 9.484048 -0.000001 0.000000 0.000002 2.048735 6.746936 -48.568700 0.700759 2.780277 -28.287404 0.000001 -0.000001 -0.000002 0.290425 5.242127 -49.306115 1.371577 3.768026 -39.991656 0.000001 -0.000001 0.000000 2.674630 7.264895 -62.648087 1.552144 3.972891 -42.666313 -0.000000 -0.000001 -0.000002 4.621177 8.054431 -77.163967 1.245188 3.612343 -38.028260 0.000000 0.000002 0.000000 -0.000000 -0.000000 0.000001 -0.138183 11.429698 -4.960277 -38.397575 30.154339 70.880978 0.000001 126.158962 0.000005 -59.570383 5.995637 3.389789 -17.468779 3.396702 14.631163 14.824868 -17.454536 -3.980490 -0.000000 0.000003 0.000002 2.307569 -6.974199 34.853212 0.648619 -2.372756 30.573962 0.000002 -0.000001 0.000005 3.999175 -8.353485 42.777249 1.794040 -3.674647 52.033573 0.000004 0.000001 -0.000000 2.015735 -6.080785 53.420299 1.456527 -3.384838 46.555891 -0.000003 -0.000004 -0.000002 8.771274 -13.641777 42.232043 2.612013 -4.184965 63.925694 -0.000002 0.000000 -0.000003 0.000001 0.000003 0.000000 -0.000001 -0.000001 0.000002 -0.000001 -0.000001 0.000002 -0.000001 -0.000001 0.000002 -0.000001 -0.000001 0.000002 -0.000001 -0.000001 0.000000 -0.000002 0.000001 0.000001 -0.000001 -0.000001 0.000002 -0.000001 -0.000001 0.000000 -0.000002 0.000001 0.000001 -0.000000 0.000003 -0.000001 -0.000000 0.000003 -0.000001 -0.000000 0.000001 -0.000000 
3.424971 77.062950 -6.947549 -8.822467 -49.298113 -9.747523 0.000000 -0.000002 -0.000000 -30.271784 12.454041 23.963866 23.428469 9.966302 3.061232 13.466483 3.202155 -13.670630 -0.000000 0.000000 0.000000 -0.000000 0.000000 0.000000 -0.000000 0.000000 -0.000000 -9.198852 -13.181069 -10.633349 41.661108 -10.215436 4.639558 -21.787807 -10.971020 6.299857 0.000000 0.000000 0.000000 0.000000 0.000000 0.000000 0.000001 -0.000000 0.000000 20.615485 -0.472044 4.438794 10.584012 -0.428190 1.362762 10.579994 -0.468937 1.382050 -3.291507 0.862288 7.750455 -3.005982 23.354626 -4.221496 -0.000000 -0.000001 0.000002 -0.000000 -0.000001 0.000002 -0.000000 -0.000001 0.000002 -2.763015 -2.360699 9.452756 -22.191594 10.922155 -84.797324 -0.009556 -92.748177 -0.009473 -7.280350 -18.258875 -20.166620 -16.559517 0.275109 -10.637349 1.831706 23.242244 9.476163 -0.000000 -0.000001 0.000001 2.048528 6.746725 -48.565681 0.700737 2.780285 -28.287415 -0.000000 -0.000002 -0.000006 0.279663 5.232152 -49.293612 1.371947 3.768456 -39.997226 0.000001 -0.000001 -0.000002 2.675224 7.265196 -62.646789 1.551591 3.972286 -42.658274 0.000001 -0.000000 -0.000004 4.618597 8.053865 -77.137991 1.242128 3.608441 -37.979513 0.000001 0.000003 -0.000002 0.000001 -0.000001 0.000002 -0.150751 11.277782 -4.935485 -38.498925 30.135720 70.895881 0.000016 125.933689 -0.000033 -59.109482 6.122440 3.318658 -17.508934 3.382829 14.622849 14.830608 -17.511067 -3.980773 -0.000002 0.000004 0.000002 2.353495 -7.012725 35.204697 0.755931 -2.545498 33.074522 -0.000001 -0.000001 0.000003 3.990599 -8.352289 42.698166 1.906032 -3.759154 53.760914 0.000002 0.000001 -0.000002 2.028046 -6.089945 53.394283 1.454829 -3.383205 46.526593 0.000002 0.000003 -0.000001 8.746639 -13.608218 42.254282 2.607240 -4.182646 63.860527 0.000001 0.000000 -0.000001 -0.000001 0.000000 0.000000 0.000003 -0.000002 0.000001 0.000003 -0.000002 0.000001 0.000003 -0.000002 0.000001 0.000003 -0.000002 0.000001 0.000003 -0.000002 0.000001 0.000003 0.000003 -0.000003 0.000003 -0.000002 0.000001 0.000003 -0.000002 0.000001 0.000003 0.000003 -0.000003 -0.000000 0.000003 -0.000001 -0.000000 0.000003 -0.000001 0.000000 -0.000002 -0.000000 
